<svg width="247" height="151" viewBox="0 0 247 151" fill="none" xmlns="http://www.w3.org/2000/svg">
<path d="M113.724 151C101.799 151 92.1201 141.298 92.1201 129.391C92.1201 117.485 101.82 107.783 113.724 107.783C125.628 107.783 135.328 117.485 135.328 129.391C135.328 141.298 125.628 151 113.724 151ZM113.724 113.12C104.759 113.12 97.4779 120.424 97.4779 129.37C97.4779 138.316 104.78 145.619 113.724 145.619C122.668 145.619 129.971 138.316 129.971 129.37C129.971 120.424 122.668 113.12 113.724 113.12Z" fill="#A2968E"/>
<path d="M113.724 139.807C107.978 139.807 103.311 135.139 103.311 129.392C103.311 123.644 107.978 118.976 113.724 118.976C119.471 118.976 124.137 123.644 124.137 129.392C124.137 135.139 119.471 139.807 113.724 139.807ZM113.724 124.335C110.937 124.335 108.669 126.604 108.669 129.392C108.669 132.179 110.937 134.448 113.724 134.448C116.511 134.448 118.78 132.179 118.78 129.392C118.78 126.604 116.511 124.335 113.724 124.335Z" fill="#A2968E"/>
<path d="M161.08 29.8629C152.849 29.8629 146.152 23.1643 146.152 14.9315C146.152 6.69863 152.849 0 161.08 0C169.311 0 176.009 6.69863 176.009 14.9315C176.009 23.1643 169.311 29.8629 161.08 29.8629ZM161.08 5.3589C155.809 5.3589 151.51 9.65899 151.51 14.9315C151.51 20.2039 155.809 24.504 161.08 24.504C166.352 24.504 170.651 20.2039 170.651 14.9315C170.651 9.65899 166.352 5.3589 161.08 5.3589Z" fill="#A2968E"/>
<path d="M182.252 117.593H164.429C163.651 117.593 162.917 117.269 162.42 116.686C161.923 116.102 161.685 115.325 161.772 114.568L165.811 84.1867H153.648C143.235 84.1867 131.288 83.0847 131.288 74.4629C131.288 70.2276 139.843 39.9542 141.55 33.9254C141.615 33.6877 141.723 33.45 141.853 33.2339C146.281 26.168 155.463 26.2112 161.836 29.8414C163.133 30.5761 163.565 32.2183 162.83 33.4932C162.096 34.7681 160.454 35.2219 159.179 34.4872C155.074 32.1319 149.328 31.8294 146.584 35.7837C142.436 50.4127 136.646 71.8267 136.624 74.4629C136.624 77.2504 142.825 78.8278 153.627 78.8278H168.858C169.635 78.8278 170.37 79.1519 170.867 79.7354C171.364 80.3188 171.601 81.0967 171.515 81.853L167.475 112.234H179.876C182.295 92.4627 184.542 70.9407 184.067 68.2829C183.419 65.0416 179.789 64.5446 170.37 64.0692C167.497 63.918 164.234 63.7451 160.799 63.3777C160.022 63.2913 159.309 62.8807 158.877 62.2325C158.423 61.5842 158.293 60.7847 158.509 60.0284C159.373 56.8304 160.821 52.7032 162.096 49.0945C162.592 47.7116 164.126 46.9769 165.509 47.4739C166.913 47.9709 167.648 49.5051 167.151 50.8881C166.244 53.4378 165.336 56.0525 164.602 58.3646C166.74 58.5375 168.793 58.6455 170.672 58.7319C179.876 59.2073 187.826 59.6179 189.36 67.2673C190.267 71.8267 185.839 108.064 184.931 115.281C184.758 116.621 183.613 117.637 182.274 117.637L182.252 117.593Z" fill="#A2968E"/>
<path d="M185.212 58.1701C184.975 58.1701 184.716 58.1269 184.478 58.062L163.976 52.2494C162.55 51.8388 161.729 50.3694 162.139 48.9433C162.55 47.5171 164.019 46.696 165.445 47.0849L183.138 52.0981L184.067 47.2794L159.309 34.5088C157.991 33.8389 157.473 32.2183 158.164 30.9002C158.834 29.5821 160.454 29.0635 161.772 29.7549L188.323 43.4547C189.382 43.9949 189.944 45.1834 189.728 46.3502L187.848 56.0092C187.697 56.7439 187.265 57.3922 186.617 57.7811C186.185 58.0404 185.709 58.1701 185.212 58.1701Z" fill="#A2968E"/>
<path d="M161.08 81.4855H105.385C96.0949 81.4855 79.7622 91.8792 79.7622 123.449H203.77L220.103 97.8215L194.847 57.3489H203.014V45.8315H187.07L185.19 55.4905L203.381 103.397L198.174 115.281H161.059V81.4855H161.08Z" fill="#E7E5E3"/>
<path d="M203.77 126.129H79.7839C78.3148 126.129 77.105 124.919 77.105 123.449C77.105 90.6907 94.021 78.8061 105.406 78.8061H161.102C162.571 78.8061 163.781 80.0162 163.781 81.4855V112.602H196.468L200.529 103.332L182.728 56.4413C182.555 55.9659 182.511 55.4689 182.598 54.9719L184.477 45.3129C184.715 44.0597 185.817 43.1521 187.113 43.1521H203.057C204.526 43.1521 205.736 44.3622 205.736 45.8315V57.3489C205.736 58.8182 204.526 60.0283 203.057 60.0283H199.708L222.393 96.3954C222.933 97.2813 222.933 98.3834 222.393 99.2477L206.06 124.875C205.563 125.653 204.721 126.107 203.792 126.107L203.77 126.129ZM82.4844 120.77H202.301L216.927 97.8215L192.579 58.775C192.061 57.9539 192.039 56.9167 192.514 56.0524C192.99 55.2096 193.875 54.6694 194.869 54.6694H200.356V48.511H189.295L187.999 55.2528L205.909 102.446C206.146 103.094 206.146 103.829 205.866 104.477L200.681 116.362C200.248 117.334 199.298 117.961 198.218 117.961H161.08C159.611 117.961 158.401 116.751 158.401 115.281V84.165H105.385C96.8079 84.165 83.3486 94.1697 82.4844 120.77Z" fill="#A2968E"/>
<path d="M222.717 151C210.791 151 201.113 141.298 201.113 129.391C201.113 122.671 204.159 116.448 209.474 112.321C210.64 111.413 212.325 111.629 213.233 112.796C214.14 113.963 213.924 115.648 212.757 116.556C208.761 119.668 206.471 124.335 206.471 129.391C206.471 138.359 213.773 145.641 222.717 145.641C231.661 145.641 238.963 138.337 238.963 129.391C238.963 124.594 236.846 120.057 233.173 116.945C232.05 115.994 231.899 114.309 232.849 113.163C233.8 112.018 235.485 111.889 236.63 112.839C241.513 116.967 244.321 122.995 244.321 129.37C244.321 141.298 234.621 150.978 222.717 150.978V151Z" fill="#A2968E"/>
<path d="M222.717 139.807C216.97 139.807 212.304 135.139 212.304 129.392C212.304 123.644 216.97 118.976 222.717 118.976C228.464 118.976 233.13 123.644 233.13 129.392C233.13 135.139 228.464 139.807 222.717 139.807ZM222.717 124.335C219.93 124.335 217.662 126.604 217.662 129.392C217.662 132.179 219.93 134.448 222.717 134.448C225.504 134.448 227.772 132.179 227.772 129.392C227.772 126.604 225.504 124.335 222.717 124.335Z" fill="#A2968E"/>
<path d="M244.321 117.593H209.215C207.745 117.593 206.536 116.383 206.536 114.914C206.536 113.445 207.745 112.235 209.215 112.235H240.433C237.127 106.443 228.421 100.523 220.103 100.523C218.634 100.523 217.424 99.3126 217.424 97.8433C217.424 96.3739 218.634 95.1638 220.103 95.1638C232.871 95.1638 245.229 105.687 246.935 114.417C247.087 115.195 246.892 116.016 246.374 116.643C245.855 117.269 245.099 117.615 244.3 117.615L244.321 117.593Z" fill="#A2968E"/>
<path d="M127.659 84.0354H77.1701C75.701 84.0354 74.4912 82.8253 74.4912 81.3559V30.8569C74.4912 29.3876 75.701 28.1775 77.1701 28.1775H127.659C129.128 28.1775 130.338 29.3876 130.338 30.8569V81.3559C130.338 82.8253 129.128 84.0354 127.659 84.0354ZM79.849 78.6765H124.98V33.5364H79.849V78.6765Z" fill="#A2968E"/>
<path d="M117.951 46.6621C117.951 46.5362 117.926 46.4102 117.877 46.2843C117.827 46.1584 117.778 46.0577 117.704 45.9318C117.654 45.8562 117.654 45.7807 117.605 45.7303C117.605 45.7051 117.556 45.6799 117.531 45.6547C117.457 45.554 117.358 45.4785 117.234 45.4029C117.136 45.3274 117.062 45.2518 116.963 45.2014C116.864 45.1511 116.74 45.1259 116.642 45.1007C116.518 45.0755 116.395 45.0251 116.271 45.0251C116.222 45.0251 116.197 45.0251 116.172 45.0251H88.8528C88.8528 45.0251 88.7787 45.0251 88.754 45.0251C88.6305 45.0251 88.507 45.0755 88.3835 45.1007C88.2847 45.1259 88.1612 45.1511 88.0624 45.2014C87.9635 45.2518 87.8647 45.3274 87.7906 45.4029C87.6918 45.4785 87.593 45.554 87.4942 45.6547C87.4942 45.6799 87.4448 45.7051 87.4201 45.7303C87.3707 45.8058 87.346 45.8814 87.3213 45.9318C87.2472 46.0325 87.1978 46.1584 87.1484 46.2843C87.099 46.4102 87.099 46.5362 87.0743 46.6621C87.0743 46.7376 87.0249 46.8132 87.0249 46.8887V67.1112C87.0249 68.1437 87.8647 69 88.8775 69H116.148C117.16 69 118 68.1437 118 67.1112V46.8887C118 46.8887 117.975 46.7376 117.951 46.6621ZM110.812 48.7775L102.513 55.4512L94.1882 48.7775H110.787H110.812ZM90.7054 65.2224V50.7922L101.352 59.3546C101.697 59.6317 102.093 59.7576 102.488 59.7576C102.883 59.7576 103.303 59.6317 103.624 59.3546L114.27 50.7922V65.2224H90.7054Z" fill="#A2968E"/>
<path d="M55.2631 56.7007H25.6223C24.1532 56.7007 22.9434 55.4906 22.9434 54.0212C22.9434 52.5519 24.1532 51.3418 25.6223 51.3418H55.2631C56.7322 51.3418 57.9421 52.5519 57.9421 54.0212C57.9421 55.4906 56.7322 56.7007 55.2631 56.7007Z" fill="#A2968E"/>
<path d="M45.9951 74.7869H16.3542C14.8851 74.7869 13.6753 73.5768 13.6753 72.1074C13.6753 70.638 14.8851 69.428 16.3542 69.428H45.9951C47.4641 69.428 48.674 70.638 48.674 72.1074C48.674 73.5768 47.4641 74.7869 45.9951 74.7869Z" fill="#A2968E"/>
<path d="M32.3198 93.6294H2.67891C1.20983 93.6294 0 92.4193 0 90.95C0 89.4806 1.20983 88.2705 2.67891 88.2705H32.3198C33.7889 88.2705 34.9987 89.4806 34.9987 90.95C34.9987 92.4193 33.7889 93.6294 32.3198 93.6294Z" fill="#A2968E"/>
</svg>
