<svg width="16" height="16" viewBox="0 0 16 16" fill="none" xmlns="http://www.w3.org/2000/svg">
<path fill-rule="evenodd" clip-rule="evenodd" d="M2.66663 8.00004C2.66663 7.63185 2.9651 7.33337 3.33329 7.33337H12.6666C13.0348 7.33337 13.3333 7.63185 13.3333 8.00004C13.3333 8.36823 13.0348 8.66671 12.6666 8.66671H3.33329C2.9651 8.66671 2.66663 8.36823 2.66663 8.00004Z" fill="white"/>
<path fill-rule="evenodd" clip-rule="evenodd" d="M7.52864 2.86189C7.78899 2.60154 8.2111 2.60154 8.47145 2.86189L13.1381 7.52855C13.3985 7.7889 13.3985 8.21101 13.1381 8.47136L8.47145 13.138C8.2111 13.3984 7.78899 13.3984 7.52864 13.138C7.26829 12.8777 7.26829 12.4556 7.52864 12.1952L11.7239 7.99996L7.52864 3.8047C7.26829 3.54435 7.26829 3.12224 7.52864 2.86189Z" fill="white"/>
</svg>
