<svg width="24" height="24" viewBox="0 0 24 24" fill="none" xmlns="http://www.w3.org/2000/svg">
<g clip-path="url(#clip0_403_3604)">
<path d="M19.4156 6.55054C19.4156 6.55054 22.091 17.0631 22.4018 18.584C22.7126 20.1048 22.4018 21.9143 20.9254 21.9143H7.41548C5.93905 21.9143 5.55052 20.2269 5.90575 18.584C6.21657 17.0631 7.90392 10.4137 7.90392 10.4137" stroke="#25272A" stroke-linecap="round" stroke-linejoin="round"/>
<path d="M18.6052 21.9365C16.9845 21.9365 17.4951 19.8606 17.4951 19.8606L19.4156 6.55054" stroke="#25272A" stroke-linecap="round" stroke-linejoin="round"/>
<path d="M13.1214 6.55054C13.2837 6.7711 13.3587 7.04386 13.3321 7.3164C13.3054 7.58893 13.179 7.842 12.9771 8.02696C12.3776 8.62642 10.335 7.57183 8.79201 6.91687L7.17126 10.4581H18.3277L19.238 6.62824H13.1214V6.55054Z" stroke="#25272A" stroke-linecap="round" stroke-linejoin="round"/>
<path d="M13.1213 6.55054C13.2836 6.7711 13.3586 7.04386 13.332 7.3164C13.3053 7.58893 13.1789 7.842 12.977 8.02697C12.7328 8.27119 12.2332 8.23788 11.6005 8.02697L9.99084 14.3212H13.6875L15.4747 6.55054H13.1213Z" fill="#898A8C" stroke="#25272A" stroke-linecap="round" stroke-linejoin="round"/>
<path d="M0.799316 3.42006C3.50795 2.96492 9.70229 1.27757 10.4461 1.5995C11.1898 1.92143 14.7754 5.85117 15.4748 6.55053" stroke="#25272A" stroke-linecap="round" stroke-linejoin="round"/>
<path d="M0.555054 8.20462C1.61164 7.59753 2.82523 7.31926 4.04076 7.40535C6.816 7.9937 7.62637 7.40535 8.37013 6.72819C9.99087 7.40535 12.311 8.77076 12.977 8.0714C13.6431 7.37204 13.4655 6.38406 11.8669 5.7069C10.891 5.29834 9.98469 4.74031 9.1805 4.05286" stroke="#25272A" stroke-linecap="round" stroke-linejoin="round"/>
<path d="M0.799275 3.42004L0.555054 8.20456" stroke="#25272A" stroke-linecap="round" stroke-linejoin="round"/>
</g>
<defs>
<clipPath id="clip0_403_3604">
<rect width="23.09" height="21.5248" fill="white" transform="translate(0 1)"/>
</clipPath>
</defs>
</svg>
