<svg width="32" height="32" viewBox="0 0 32 32" fill="none" xmlns="http://www.w3.org/2000/svg">
<path fill-rule="evenodd" clip-rule="evenodd" d="M16 3.99992C9.37256 3.99992 3.99998 9.3725 3.99998 15.9999C3.99998 22.6273 9.37256 27.9999 16 27.9999C22.6274 27.9999 28 22.6273 28 15.9999C28 9.3725 22.6274 3.99992 16 3.99992ZM1.33331 15.9999C1.33331 7.89974 7.8998 1.33325 16 1.33325C24.1002 1.33325 30.6666 7.89974 30.6666 15.9999C30.6666 24.1001 24.1002 30.6666 16 30.6666C7.8998 30.6666 1.33331 24.1001 1.33331 15.9999Z" fill="#2A2A2E"/>
<path fill-rule="evenodd" clip-rule="evenodd" d="M20.9428 11.0573C21.4635 11.578 21.4635 12.4222 20.9428 12.9429L12.9428 20.9429C12.4221 21.4636 11.5779 21.4636 11.0572 20.9429C10.5365 20.4222 10.5365 19.578 11.0572 19.0573L19.0572 11.0573C19.5779 10.5366 20.4221 10.5366 20.9428 11.0573Z" fill="#2A2A2E"/>
<path fill-rule="evenodd" clip-rule="evenodd" d="M11.0572 11.0573C11.5779 10.5366 12.4221 10.5366 12.9428 11.0573L20.9428 19.0573C21.4635 19.578 21.4635 20.4222 20.9428 20.9429C20.4221 21.4636 19.5779 21.4636 19.0572 20.9429L11.0572 12.9429C10.5365 12.4222 10.5365 11.578 11.0572 11.0573Z" fill="#2A2A2E"/>
</svg>
