<svg width="40" height="40" viewBox="0 0 40 40" fill="none" xmlns="http://www.w3.org/2000/svg">
<path d="M30 10H26.6667C26.6667 6.31671 23.6833 3.33337 20 3.33337C16.3167 3.33337 13.3333 6.31671 13.3333 10H10C8.16667 10 6.66667 11.5 6.66667 13.3334V33.3334C6.66667 35.1667 8.16667 36.6667 10 36.6667H30C31.8333 36.6667 33.3333 35.1667 33.3333 33.3334V13.3334C33.3333 11.5 31.8333 10 30 10ZM20 6.66671C21.8333 6.66671 23.3333 8.16671 23.3333 10H16.6667C16.6667 8.16671 18.1667 6.66671 20 6.66671ZM30 33.3334H10V13.3334H13.3333V16.6667C13.3333 17.5834 14.0833 18.3334 15 18.3334C15.9167 18.3334 16.6667 17.5834 16.6667 16.6667V13.3334H23.3333V16.6667C23.3333 17.5834 24.0833 18.3334 25 18.3334C25.9167 18.3334 26.6667 17.5834 26.6667 16.6667V13.3334H30V33.3334Z" fill="white"/>
</svg>
