<svg width="225" height="47" viewBox="0 0 225 47" fill="none" xmlns="http://www.w3.org/2000/svg">
<path d="M0.0560001 35V34.52L1.16 34.088C1.704 33.864 2.072 33.576 2.264 33.224C2.488 32.84 2.6 32.328 2.6 31.688V6.632C2.6 5.992 2.504 5.496 2.312 5.144C2.152 4.76 1.768 4.456 1.16 4.232L0.0560001 3.8V3.32H23.048L23.336 10.712H22.856L20.792 6.2C20.504 5.624 20.2 5.16 19.88 4.808C19.56 4.456 19.08 4.28 18.44 4.28H9.8V18.152H14.936C15.576 18.152 16.056 17.992 16.376 17.672C16.728 17.32 17.032 16.856 17.288 16.28L18.248 14.36H18.728V23H18.248L17.288 20.984C17 20.408 16.696 19.96 16.376 19.64C16.056 19.288 15.576 19.112 14.936 19.112H9.8V34.04H19.496C20.136 34.04 20.632 33.88 20.984 33.56C21.336 33.208 21.624 32.728 21.848 32.12L23.816 27.608H24.296L24.008 35H0.0560001ZM26.585 35V34.52L27.257 34.328C27.865 34.168 28.281 33.896 28.505 33.512C28.761 33.128 28.905 32.616 28.937 31.976V16.952C28.937 16.248 28.825 15.736 28.601 15.416C28.377 15.064 27.945 14.824 27.305 14.696L26.585 14.504V14.024L34.793 11.24L35.273 11.72L35.657 14.984C36.713 13.928 37.913 13.032 39.257 12.296C40.633 11.56 42.057 11.192 43.529 11.192C45.065 11.192 46.297 11.512 47.225 12.152C48.153 12.76 48.857 13.72 49.337 15.032C50.585 13.848 51.929 12.92 53.369 12.248C54.841 11.544 56.265 11.192 57.641 11.192C59.913 11.192 61.577 11.736 62.633 12.824C63.721 13.912 64.265 15.624 64.265 17.96V32.024C64.265 33.272 64.841 34.056 65.993 34.376L66.521 34.52V35H55.433V34.52L55.913 34.376C56.521 34.184 56.937 33.896 57.161 33.512C57.417 33.128 57.545 32.616 57.545 31.976V17.288C57.545 15.944 57.305 15.032 56.825 14.552C56.345 14.04 55.577 13.784 54.521 13.784C53.689 13.784 52.873 13.976 52.073 14.36C51.305 14.712 50.489 15.256 49.625 15.992C49.785 16.504 49.881 17.064 49.913 17.672C49.977 18.28 50.009 18.92 50.009 19.592V32.024C50.041 33.272 50.617 34.056 51.737 34.376L52.169 34.52V35H41.033V34.52L41.705 34.328C42.313 34.136 42.729 33.864 42.953 33.512C43.209 33.128 43.337 32.616 43.337 31.976V17.336C43.337 16.056 43.097 15.144 42.617 14.6C42.169 14.056 41.385 13.784 40.265 13.784C39.529 13.784 38.793 13.976 38.057 14.36C37.321 14.712 36.553 15.24 35.753 15.944V32.024C35.753 33.272 36.313 34.056 37.433 34.376L37.865 34.52V35H26.585ZM71.3604 46.52C70.0804 46.52 69.0564 46.2 68.2884 45.56C67.5524 44.92 67.1844 44.104 67.1844 43.112C67.1844 42.216 67.5044 41.496 68.1444 40.952C68.7844 40.408 69.5044 40.136 70.3044 40.136C71.1044 40.136 71.7764 40.296 72.3204 40.616C72.8644 40.968 73.3444 41.464 73.7604 42.104L74.0964 42.488C74.8004 43.448 75.5044 43.432 76.2084 42.44C76.4964 41.96 76.8164 41.32 77.1684 40.52C77.5524 39.752 77.9844 38.712 78.4644 37.4L69.1524 15.128C68.9284 14.52 68.6884 14.04 68.4324 13.688C68.1764 13.304 67.7604 12.984 67.1844 12.728L66.3204 12.392V11.912H78.2724V12.344L77.3124 12.728C76.6084 12.952 76.2404 13.32 76.2084 13.832C76.2084 14.312 76.3364 14.92 76.5924 15.656L81.5844 28.616L86.3364 15.512C86.5924 14.776 86.6884 14.168 86.6244 13.688C86.5604 13.176 86.1604 12.824 85.4244 12.632L84.4164 12.392V11.912H91.0884V12.392L90.0324 12.728C89.2964 12.952 88.7844 13.272 88.4964 13.688C88.2084 14.104 87.9364 14.68 87.6804 15.416L79.9524 36.488C78.7044 39.848 77.4564 42.36 76.2084 44.024C74.9604 45.688 73.3444 46.52 71.3604 46.52ZM92.6788 35V34.52L93.3988 34.328C94.0388 34.136 94.4708 33.848 94.6948 33.464C94.9508 33.08 95.0788 32.584 95.0788 31.976V16.952C95.0788 16.248 94.9508 15.736 94.6948 15.416C94.4708 15.064 94.0388 14.824 93.3988 14.696L92.6788 14.504V14.024L100.935 11.24L101.415 11.72L101.847 15.848V16.232C102.295 15.336 102.871 14.52 103.575 13.784C104.311 13.016 105.111 12.392 105.975 11.912C106.871 11.432 107.751 11.192 108.615 11.192C109.831 11.192 110.759 11.528 111.399 12.2C112.039 12.872 112.359 13.72 112.359 14.744C112.359 15.832 112.039 16.68 111.399 17.288C110.791 17.864 110.055 18.152 109.191 18.152C107.847 18.152 106.663 17.48 105.639 16.136L105.543 16.04C105.223 15.592 104.855 15.352 104.439 15.32C104.023 15.256 103.639 15.448 103.287 15.896C102.967 16.184 102.695 16.536 102.471 16.952C102.279 17.336 102.087 17.784 101.895 18.296V31.688C101.895 32.968 102.455 33.768 103.575 34.088L105.111 34.52V35H92.6788ZM112.697 35V34.52L113.705 34.184C114.345 33.96 114.761 33.672 114.953 33.32C115.145 32.936 115.241 32.408 115.241 31.736V6.632C115.241 5.992 115.145 5.496 114.953 5.144C114.793 4.76 114.409 4.456 113.801 4.232L112.697 3.8V3.32H126.425C130.201 3.32 133.097 4.04 135.113 5.48C137.129 6.888 138.137 8.856 138.137 11.384C138.137 12.792 137.609 14.2 136.553 15.608C135.497 17.016 133.833 18.104 131.561 18.872L138.233 32.12C138.521 32.664 138.841 33.112 139.193 33.464C139.577 33.784 140.073 34.072 140.681 34.328L141.305 34.568V35H132.713L125.609 19.88H122.345V31.736C122.345 32.344 122.441 32.84 122.633 33.224C122.825 33.608 123.225 33.896 123.833 34.088L124.985 34.52V35H112.697ZM122.345 18.92H124.649C126.953 18.92 128.617 18.312 129.641 17.096C130.665 15.848 131.177 14.008 131.177 11.576C131.177 9.112 130.697 7.288 129.737 6.104C128.777 4.888 127.161 4.28 124.889 4.28H122.345V18.92ZM149.468 35.72C147.612 35.72 146.044 35.192 144.764 34.136C143.516 33.08 142.892 31.56 142.892 29.576C142.892 28.072 143.66 26.696 145.196 25.448C146.732 24.168 149.148 23.208 152.444 22.568C152.956 22.472 153.532 22.376 154.172 22.28C154.812 22.152 155.484 22.024 156.188 21.896V18.104C156.188 15.928 155.916 14.408 155.372 13.544C154.86 12.648 154.044 12.2 152.924 12.2C152.156 12.2 151.548 12.456 151.1 12.968C150.652 13.448 150.364 14.296 150.236 15.512L150.14 16.04C150.076 17.416 149.74 18.424 149.132 19.064C148.524 19.704 147.772 20.024 146.876 20.024C146.044 20.024 145.356 19.768 144.812 19.256C144.268 18.744 143.996 18.056 143.996 17.192C143.996 15.88 144.444 14.776 145.34 13.88C146.268 12.984 147.484 12.312 148.988 11.864C150.492 11.416 152.124 11.192 153.884 11.192C156.732 11.192 158.924 11.896 160.46 13.304C162.028 14.68 162.812 16.936 162.812 20.072V30.68C162.812 32.12 163.484 32.84 164.828 32.84H165.884L166.316 33.224C165.708 33.992 165.036 34.584 164.3 35C163.596 35.416 162.588 35.624 161.276 35.624C159.868 35.624 158.748 35.304 157.916 34.664C157.116 33.992 156.588 33.112 156.332 32.024C155.372 33.048 154.38 33.928 153.356 34.664C152.364 35.368 151.068 35.72 149.468 35.72ZM152.396 32.792C153.036 32.792 153.628 32.648 154.172 32.36C154.748 32.04 155.42 31.56 156.188 30.92V22.856C155.868 22.92 155.548 22.984 155.228 23.048C154.908 23.112 154.54 23.176 154.124 23.24C152.652 23.624 151.468 24.28 150.572 25.208C149.708 26.104 149.276 27.32 149.276 28.856C149.276 30.168 149.58 31.16 150.188 31.832C150.796 32.472 151.532 32.792 152.396 32.792ZM167.21 35V34.52L167.882 34.328C168.49 34.168 168.906 33.896 169.13 33.512C169.386 33.128 169.53 32.616 169.562 31.976V16.952C169.562 16.248 169.45 15.736 169.226 15.416C169.002 15.064 168.57 14.824 167.93 14.696L167.21 14.504V14.024L175.418 11.24L175.898 11.72L176.282 14.984C177.338 13.928 178.538 13.032 179.882 12.296C181.258 11.56 182.682 11.192 184.154 11.192C185.69 11.192 186.922 11.512 187.85 12.152C188.778 12.76 189.482 13.72 189.962 15.032C191.21 13.848 192.554 12.92 193.994 12.248C195.466 11.544 196.89 11.192 198.266 11.192C200.538 11.192 202.202 11.736 203.258 12.824C204.346 13.912 204.89 15.624 204.89 17.96V32.024C204.89 33.272 205.466 34.056 206.618 34.376L207.146 34.52V35H196.058V34.52L196.538 34.376C197.146 34.184 197.562 33.896 197.786 33.512C198.042 33.128 198.17 32.616 198.17 31.976V17.288C198.17 15.944 197.93 15.032 197.45 14.552C196.97 14.04 196.202 13.784 195.146 13.784C194.314 13.784 193.498 13.976 192.698 14.36C191.93 14.712 191.114 15.256 190.25 15.992C190.41 16.504 190.506 17.064 190.538 17.672C190.602 18.28 190.634 18.92 190.634 19.592V32.024C190.666 33.272 191.242 34.056 192.362 34.376L192.794 34.52V35H181.658V34.52L182.33 34.328C182.938 34.136 183.354 33.864 183.578 33.512C183.834 33.128 183.962 32.616 183.962 31.976V17.336C183.962 16.056 183.722 15.144 183.242 14.6C182.794 14.056 182.01 13.784 180.89 13.784C180.154 13.784 179.418 13.976 178.682 14.36C177.946 14.712 177.178 15.24 176.378 15.944V32.024C176.378 33.272 176.938 34.056 178.058 34.376L178.49 34.52V35H167.21ZM210.358 7.823C210.358 6.671 210.547 5.654 210.925 4.772C211.303 3.872 211.816 3.125 212.464 2.531C213.13 1.919 213.895 1.46 214.759 1.154C215.623 0.829998 216.541 0.667998 217.513 0.667998C218.503 0.667998 219.43 0.829998 220.294 1.154C221.176 1.46 221.941 1.919 222.589 2.531C223.237 3.125 223.741 3.872 224.101 4.772C224.479 5.654 224.668 6.671 224.668 7.823C224.668 8.975 224.479 10.001 224.101 10.901C223.723 11.783 223.201 12.53 222.535 13.142C221.887 13.736 221.131 14.195 220.267 14.519C219.403 14.825 218.485 14.978 217.513 14.978C216.505 14.978 215.569 14.825 214.705 14.519C213.841 14.195 213.085 13.736 212.437 13.142C211.789 12.53 211.276 11.783 210.898 10.901C210.538 10.001 210.358 8.975 210.358 7.823ZM212.059 7.823C212.059 8.759 212.203 9.578 212.491 10.28C212.779 10.964 213.166 11.54 213.652 12.008C214.156 12.458 214.741 12.8 215.407 13.034C216.073 13.268 216.775 13.385 217.513 13.385C218.287 13.385 219.007 13.277 219.673 13.061C220.339 12.827 220.915 12.485 221.401 12.035C221.887 11.567 222.265 10.991 222.535 10.307C222.823 9.605 222.967 8.777 222.967 7.823C222.967 6.887 222.823 6.077 222.535 5.393C222.247 4.691 221.851 4.115 221.347 3.665C220.861 3.197 220.285 2.846 219.619 2.612C218.971 2.378 218.269 2.261 217.513 2.261C216.721 2.261 215.992 2.378 215.326 2.612C214.66 2.846 214.084 3.197 213.598 3.665C213.112 4.115 212.734 4.691 212.464 5.393C212.194 6.077 212.059 6.887 212.059 7.823ZM214.732 4.313C215.02 4.223 215.425 4.16 215.947 4.124C216.469 4.07 216.964 4.043 217.432 4.043C218.188 4.043 218.836 4.205 219.376 4.529C219.916 4.835 220.186 5.375 220.186 6.149C220.186 6.725 219.997 7.166 219.619 7.472C219.259 7.778 218.809 7.949 218.269 7.985L219.025 8.363L221.023 11.306H219.376L217.432 8.498L216.136 8.093V11.306H214.732V4.313ZM217.135 5.258C216.937 5.258 216.748 5.267 216.568 5.285C216.388 5.285 216.244 5.312 216.136 5.366V7.283H217.054C217.576 7.283 217.981 7.202 218.269 7.04C218.557 6.878 218.701 6.599 218.701 6.203C218.701 5.573 218.179 5.258 217.135 5.258Z" fill="#D8A31C"/>
</svg>
