<svg width="144" height="50" viewBox="0 0 144 50" fill="none" xmlns="http://www.w3.org/2000/svg">
<g clip-path="url(#clip0_71_849)">
<path d="M56.1586 11.881C56.1586 7.5282 58.6204 4.35278 62.6878 4.35278C65.7205 4.35278 67.7542 6.02969 68.218 8.70561H66.8979C66.5055 6.85031 65.0069 5.49451 62.6521 5.49451C59.2626 5.49451 57.55 8.27746 57.55 11.8454C57.55 15.4489 59.334 18.1248 62.6521 18.1248C65.4351 18.1248 66.9336 16.1982 67.1477 13.8077H68.4678C68.3964 15.2348 67.8612 16.6263 66.9693 17.5897C65.9703 18.7314 64.4361 19.3379 62.6165 19.3379C58.6204 19.3022 56.1586 16.2695 56.1586 11.881Z" fill="black"/>
<path d="M71.9643 4.63818H73.3201V17.8037H80.9911V19.0525H71.9643V4.63818Z" fill="black"/>
<path d="M83.7027 14.4856V4.63818H85.0585V14.3428C85.0585 17.0188 86.4856 18.0891 89.0188 18.0891C91.4093 18.0891 92.9435 17.0188 92.9435 14.3428V4.63818H94.2993V14.4499C94.2993 17.8037 92.0872 19.2309 88.9475 19.2309C85.8077 19.2665 83.7027 17.8037 83.7027 14.4856Z" fill="black"/>
<path d="M98.2953 4.63818H104.289C105.574 4.63818 106.609 4.99497 107.358 5.67287C108.036 6.27941 108.392 7.17138 108.392 8.24175C108.392 9.88298 107.643 10.8463 106.18 11.3458V11.4172C107.822 11.881 108.963 13.0584 108.963 14.9494C108.963 16.1268 108.607 17.0544 107.929 17.768C107.179 18.5173 106.002 18.9811 104.539 18.9811H98.2953V4.63818ZM104.254 10.989C106.002 10.989 107.001 9.95434 107.001 8.38447C107.001 6.74324 105.966 5.85127 104.289 5.85127H99.6511V10.989H104.254ZM104.432 17.8394C105.538 17.8394 106.359 17.5183 106.858 17.0188C107.322 16.5549 107.572 15.877 107.572 15.0564C107.572 13.2368 106.287 12.1664 104.396 12.1664H99.5798V17.8394H104.432Z" fill="black"/>
<path d="M56.1586 30.8264H57.5144V38.4974L65.2924 30.8264H67.0406L61.0109 36.6778L67.3974 45.205H65.7919L60.0832 37.6054L57.5144 40.1386V45.205H56.1586V30.8264Z" fill="black"/>
<path d="M70.4301 30.8264H71.7859V45.2407H70.4301V30.8264Z" fill="black"/>
<path d="M79.9921 32.0039H75.1041V30.7908H86.1645V32.0039H81.3479V45.205H79.9921V32.0039Z" fill="black"/>
<path d="M87.9128 38.0336C87.9128 33.6808 90.3746 30.5054 94.442 30.5054C97.4747 30.5054 99.5084 32.1823 99.9723 34.8582H98.6521C98.2597 33.0029 96.7612 31.6471 94.4064 31.6471C91.0169 31.6471 89.3043 34.43 89.3043 37.9979C89.3043 41.6015 91.0882 44.2774 94.4064 44.2774C97.1893 44.2774 98.6878 42.3508 98.9019 39.9603H100.222C100.151 41.3874 99.6155 42.7789 98.7235 43.7422C97.7245 44.884 96.1903 45.4905 94.3707 45.4905C90.3746 45.4548 87.9128 42.4221 87.9128 38.0336Z" fill="black"/>
<path d="M103.719 30.8264H105.074V37.0345H113.245V30.8264H114.601V45.2407H113.245V38.1763H105.074V45.2407H103.719V30.8264Z" fill="black"/>
<path d="M118.775 30.8264H128.551V32.0038H120.095V37.1773H127.837V38.3547H120.095V43.9563H128.765V45.205H118.739V30.8264H118.775Z" fill="black"/>
<path d="M132.404 30.8264H133.867L140.503 40.9235C141.217 41.9939 141.931 43.314 141.931 43.314H141.966V30.8264H143.251V45.2407H141.824L135.223 35.2506C134.545 34.2516 133.724 32.8244 133.724 32.8244H133.689V45.2407H132.404V30.8264Z" fill="black"/>
<path d="M23.227 3.1041C24.094 3.1041 24.7968 2.40124 24.7968 1.53423C24.7968 0.667211 24.094 -0.0356445 23.227 -0.0356445C22.3599 -0.0356445 21.6571 0.667211 21.6571 1.53423C21.6571 2.40124 22.3599 3.1041 23.227 3.1041Z" fill="black"/>
<path d="M6.64862 37.0062L3.92929 38.5754L4.28594 39.1935L7.00527 37.6242L6.64862 37.0062Z" fill="black"/>
<path d="M13.4774 44.0806L11.9084 46.8003L12.5265 47.1569L14.0955 44.4372L13.4774 44.0806Z" fill="black"/>
<path d="M23.6194 46.8108H22.9058V49.9505H23.6194V46.8108Z" fill="black"/>
<path d="M33.0722 44.0949L32.4542 44.4517L34.0241 47.1707L34.6421 46.8139L33.0722 44.0949Z" fill="black"/>
<path d="M39.9026 37.0092L39.5458 37.6272L42.2649 39.1971L42.6216 38.5791L39.9026 37.0092Z" fill="black"/>
<path d="M4.81987 32.3966L1.78719 33.2095L1.97194 33.8987L5.00461 33.0858L4.81987 32.3966Z" fill="black"/>
<path d="M9.59689 40.9747L7.37678 43.1948L7.88135 43.6994L10.1015 41.4793L9.59689 40.9747Z" fill="black"/>
<path d="M18.0038 46.0579L17.1909 49.0906L17.8802 49.2753L18.6931 46.2427L18.0038 46.0579Z" fill="black"/>
<path d="M28.5152 46.06L27.826 46.2446L28.6385 49.2773L29.3278 49.0926L28.5152 46.06Z" fill="black"/>
<path d="M36.9601 40.9766L36.4555 41.4812L38.6756 43.7013L39.1802 43.1967L36.9601 40.9766Z" fill="black"/>
<path d="M41.7201 32.3733L41.5354 33.0625L44.5681 33.8751L44.7527 33.1858L41.7201 32.3733Z" fill="black"/>
<path d="M45.4192 27.437H1.14172V28.1149H45.4192V27.437Z" fill="black"/>
<path d="M2.28345 23.2271C4.31714 13.5938 12.9514 6.35099 23.2626 6.35099C33.5738 6.35099 42.2081 13.5938 44.2418 23.2271H44.9554C42.9217 13.237 33.9663 5.6731 23.2626 5.6731C12.559 5.6731 3.60357 13.2013 1.56987 23.2271H2.28345Z" fill="black"/>
<path d="M44.7056 27.4373C44.7056 27.4729 44.7056 27.5086 44.7056 27.58V27.7941H45.4192V27.58C45.4192 27.5443 45.4192 27.5086 45.4192 27.4373H44.7056Z" fill="black"/>
<path d="M1.14172 27.4373C1.14172 27.4729 1.14172 27.5086 1.14172 27.58V27.7941H1.8553V27.58C1.8553 27.5443 1.8553 27.5086 1.8553 27.4373H1.14172Z" fill="black"/>
<path d="M34.0377 37.9266L23.5837 27.437H22.9415L12.4876 37.8909L12.9871 38.4261L23.2626 28.1506L33.5382 38.4261L34.0377 37.9266Z" fill="black"/>
</g>
<defs>
<clipPath id="clip0_71_849">
<rect width="144" height="49.9504" fill="white"/>
</clipPath>
</defs>
</svg>
