<svg width="24" height="25" viewBox="0 0 24 25" fill="none" xmlns="http://www.w3.org/2000/svg">
<path fill-rule="evenodd" clip-rule="evenodd" d="M2 12.6501C2 12.0979 2.44772 11.6501 3 11.6501H21C21.5523 11.6501 22 12.0979 22 12.6501C22 13.2024 21.5523 13.6501 21 13.6501H3C2.44772 13.6501 2 13.2024 2 12.6501Z" fill="black"/>
<path fill-rule="evenodd" clip-rule="evenodd" d="M2 6.65015C2 6.09786 2.44772 5.65015 3 5.65015H21C21.5523 5.65015 22 6.09786 22 6.65015C22 7.20243 21.5523 7.65015 21 7.65015H3C2.44772 7.65015 2 7.20243 2 6.65015Z" fill="black"/>
<path fill-rule="evenodd" clip-rule="evenodd" d="M2 18.6501C2 18.0979 2.44772 17.6501 3 17.6501H21C21.5523 17.6501 22 18.0979 22 18.6501C22 19.2024 21.5523 19.6501 21 19.6501H3C2.44772 19.6501 2 19.2024 2 18.6501Z" fill="black"/>
</svg>
