<svg width="16" height="16" viewBox="0 0 16 16" fill="none" xmlns="http://www.w3.org/2000/svg">
<path fill-rule="evenodd" clip-rule="evenodd" d="M7.99935 2.00002C4.68564 2.00002 1.99935 4.68631 1.99935 8.00002C1.99935 11.3137 4.68564 14 7.99935 14C11.3131 14 13.9993 11.3137 13.9993 8.00002C13.9993 4.68631 11.3131 2.00002 7.99935 2.00002ZM0.666016 8.00002C0.666016 3.94993 3.94926 0.666687 7.99935 0.666687C12.0494 0.666687 15.3327 3.94993 15.3327 8.00002C15.3327 12.0501 12.0494 15.3334 7.99935 15.3334C3.94926 15.3334 0.666016 12.0501 0.666016 8.00002Z" fill="white"/>
<path fill-rule="evenodd" clip-rule="evenodd" d="M0.666016 8.00002C0.666016 7.63183 0.964492 7.33335 1.33268 7.33335H14.666C15.0342 7.33335 15.3327 7.63183 15.3327 8.00002C15.3327 8.36821 15.0342 8.66669 14.666 8.66669H1.33268C0.964492 8.66669 0.666016 8.36821 0.666016 8.00002Z" fill="white"/>
<path fill-rule="evenodd" clip-rule="evenodd" d="M5.9995 8.00002C6.04519 10.0499 6.75018 12.0235 7.99935 13.6328C9.24851 12.0235 9.9535 10.0499 9.99919 8.00002C9.9535 5.95013 9.24851 3.97658 7.99935 2.36722C6.75019 3.97658 6.04519 5.95013 5.9995 8.00002ZM7.99935 1.33335L7.50712 0.883738C5.73061 2.82862 4.72102 5.35259 4.66616 7.98613C4.66597 7.99539 4.66597 8.00465 4.66616 8.01391C4.72102 10.6474 5.73061 13.1714 7.50712 15.1163C7.63342 15.2546 7.81207 15.3334 7.99935 15.3334C8.18663 15.3334 8.36527 15.2546 8.49158 15.1163C10.2681 13.1714 11.2777 10.6474 11.3325 8.01391C11.3327 8.00465 11.3327 7.99539 11.3325 7.98613C11.2777 5.35259 10.2681 2.82862 8.49158 0.883738L7.99935 1.33335Z" fill="white"/>
</svg>
