<?xml version="1.0" encoding="utf-8"?>
<!-- Generator: Adobe Illustrator 26.2.1, SVG Export Plug-In . SVG Version: 6.00 Build 0)  -->
<svg version="1.1" id="Layer_1" xmlns="http://www.w3.org/2000/svg" xmlns:xlink="http://www.w3.org/1999/xlink" x="0px" y="0px"
	 viewBox="0 0 24 24" xml:space="preserve">
<style type="text/css">
	.st0{fill:none;}
	.st1{fill:#25272A;}
</style>
<g>
	<path class="st0" d="M12,2.4L12,2.4c5.3,0,9.6,4.3,9.6,9.6l0,0c0,5.3-4.3,9.6-9.6,9.6l0,0c-5.3,0-9.6-4.3-9.6-9.6l0,0
		C2.4,6.7,6.7,2.4,12,2.4z"/>
	<g>
		<path class="st1" d="M8.7,18.3c-0.1,0-0.2,0-0.3-0.1c-0.3-0.2-0.4-0.5-0.2-0.8l3.4-6.1h4.9c0.3,0,0.6,0.3,0.6,0.6
			s-0.3,0.6-0.6,0.6h-4.3l-3.1,5.5C9.1,18.2,8.9,18.3,8.7,18.3z"/>
	</g>
	<g>
		<path class="st1" d="M12,3.7c-0.3,0-0.6-0.3-0.6-0.6V1.1c0-0.3,0.3-0.6,0.6-0.6s0.6,0.3,0.6,0.6v2.1C12.6,3.4,12.3,3.7,12,3.7z"/>
	</g>
	<g>
		<path class="st1" d="M7.6,4.9c-0.2,0-0.4-0.1-0.5-0.3l-1-1.8C5.9,2.6,6,2.2,6.3,2.1C6.5,1.9,6.9,2,7,2.3L8,4
			c0.2,0.3,0.1,0.6-0.2,0.8C7.7,4.8,7.7,4.9,7.6,4.9z"/>
	</g>
	<g>
		<path class="st1" d="M4.3,8.1C4.2,8.1,4.1,8.1,4,8L2.3,7C2,6.9,1.9,6.5,2.1,6.3C2.2,6,2.6,5.9,2.8,6.1l1.8,1
			c0.3,0.2,0.4,0.5,0.2,0.8C4.7,8,4.5,8.1,4.3,8.1z"/>
	</g>
	<g>
		<path class="st1" d="M3.1,12.6H1.1c-0.3,0-0.6-0.3-0.6-0.6s0.3-0.6,0.6-0.6h2.1c0.3,0,0.6,0.3,0.6,0.6S3.4,12.6,3.1,12.6z"/>
	</g>
	<g>
		<path class="st1" d="M2.6,18c-0.2,0-0.4-0.1-0.5-0.3C1.9,17.5,2,17.1,2.3,17L4,16c0.3-0.2,0.6-0.1,0.8,0.2
			c0.2,0.3,0.1,0.6-0.2,0.8l-1.8,1C2.7,18,2.6,18,2.6,18z"/>
	</g>
	<g>
		<path class="st1" d="M6.5,22c-0.1,0-0.2,0-0.3-0.1c-0.3-0.2-0.4-0.5-0.2-0.8l1-1.8c0.2-0.3,0.5-0.4,0.8-0.2
			C8.1,19.4,8.2,19.7,8,20l-1,1.8C6.9,21.9,6.7,22,6.5,22z"/>
	</g>
	<g>
		<path class="st1" d="M12,23.5c-0.3,0-0.6-0.3-0.6-0.6v-2.1c0-0.3,0.3-0.6,0.6-0.6s0.6,0.3,0.6,0.6v2.1
			C12.6,23.2,12.3,23.5,12,23.5z"/>
	</g>
	<g>
		<path class="st1" d="M17.5,22c-0.2,0-0.4-0.1-0.5-0.3L16,20c-0.2-0.3-0.1-0.6,0.2-0.8c0.3-0.2,0.6-0.1,0.8,0.2l1,1.8
			c0.2,0.3,0.1,0.6-0.2,0.8C17.6,22,17.5,22,17.5,22z"/>
	</g>
	<g>
		<path class="st1" d="M21.4,18c-0.1,0-0.2,0-0.3-0.1l-1.8-1c-0.3-0.2-0.4-0.5-0.2-0.8c0.2-0.3,0.5-0.4,0.8-0.2l1.8,1
			c0.3,0.2,0.4,0.5,0.2,0.8C21.8,17.9,21.6,18,21.4,18z"/>
	</g>
	<g>
		<path class="st1" d="M22.9,12.6h-2.1c-0.3,0-0.6-0.3-0.6-0.6s0.3-0.6,0.6-0.6h2.1c0.3,0,0.6,0.3,0.6,0.6S23.2,12.6,22.9,12.6z"/>
	</g>
	<g>
		<path class="st1" d="M19.7,8.1c-0.2,0-0.4-0.1-0.5-0.3c-0.2-0.3-0.1-0.6,0.2-0.8l1.8-1c0.3-0.2,0.6-0.1,0.8,0.2
			C22.1,6.5,22,6.9,21.7,7L20,8C19.9,8.1,19.8,8.1,19.7,8.1z"/>
	</g>
	<g>
		<path class="st1" d="M16.4,4.9c-0.1,0-0.2,0-0.3-0.1C15.9,4.6,15.8,4.3,16,4l1-1.8c0.2-0.3,0.5-0.4,0.8-0.2
			c0.3,0.2,0.4,0.5,0.2,0.8l-1,1.8C16.8,4.8,16.6,4.9,16.4,4.9z"/>
	</g>
</g>
</svg>
