<?xml version="1.0" encoding="UTF-8"?><svg id="a" xmlns="http://www.w3.org/2000/svg" viewBox="0 0 23 17.41"><defs><style>.b{fill:#25272a;}</style></defs><path class="b" d="M22.61,6.55c-.3-.34-.73-.52-1.21-.52h-.75V3.28h.75c.31,0,.57-.25,.57-.57s-.25-.57-.57-.57h-7.54V.57c0-.31-.25-.57-.57-.57h-4.07c-.31,0-.57,.25-.57,.57v1.58H1.14c-.31,0-.57,.25-.57,.57s.25,.57,.57,.57h1.21v2.75h-.75c-.46,0-.9,.19-1.2,.53C.09,6.89-.04,7.33,.01,7.77l.19,2.13c.06,.92,.8,1.66,1.66,1.66h.49v.45c0,1.85,1.5,3.35,3.35,3.35h11.6c1.85,0,3.35-1.5,3.35-3.35v-.45h.49c.86,0,1.6-.74,1.66-1.65l.19-2.13c.06-.47-.08-.91-.37-1.24ZM9.8,1.13h2.94v.98h-2.94v-.98ZM1.85,10.44c-.26,0-.51-.29-.53-.61l-.19-2.16c-.02-.17,.04-.28,.1-.35,.09-.1,.22-.15,.36-.15h.75v3.28h-.49Zm17.67,1.58c0,1.23-1,2.22-2.22,2.22H5.7c-1.23,0-2.22-1-2.22-2.22V3.28H19.53V12.02Zm2.15-2.18c-.02,.31-.27,.6-.53,.6h-.49v-3.28h.75c.15,0,.28,.05,.36,.14,.08,.09,.11,.21,.09,.37l-.19,2.16Z"/><path class="b" d="M17.34,16.28H5.66c-.31,0-.57,.25-.57,.57s.25,.57,.57,.57h11.68c.31,0,.57-.25,.57-.57s-.25-.57-.57-.57Z"/></svg>