<?xml version="1.0" encoding="UTF-8"?><svg id="a" xmlns="http://www.w3.org/2000/svg" viewBox="0 0 23 23"><defs><style>.b{fill:#25272a;}</style></defs><path class="b" d="M12.54,13.14l-2.04,2.04-2.69-2.66,2.06-2.06c.23-.23,.23-.61,0-.84-.23-.23-.61-.23-.84,0l-2.06,2.06-1.37-1.35c-.23-.23-.61-.23-.84,0l-2.3,2.3c-2.02,2.06-2.15,5.29-.39,7.47l-1.9,1.9c-.23,.23-.23,.61,0,.84,.12,.12,.27,.17,.42,.17s.3-.06,.42-.17l1.9-1.9c1.02,.81,2.26,1.22,3.51,1.22,1.45,0,2.9-.55,4-1.65l2.29-2.29c.11-.11,.17-.26,.17-.42s-.06-.31-.18-.42l-1.36-1.35,2.04-2.04c.23-.23,.23-.61,0-.84s-.61-.23-.84,0Zm-2.96,6.52c-1.72,1.72-4.54,1.74-6.28,.04-1.7-1.7-1.7-4.5,0-6.23l1.88-1.88,6.27,6.2-1.87,1.87Z"/><path class="b" d="M22.83,.17c-.23-.23-.61-.23-.84,0l-1.9,1.9c-2.21-1.76-5.47-1.61-7.51,.43l-2.29,2.29c-.23,.23-.23,.61,0,.84l7.07,7.07c.12,.12,.27,.17,.42,.17s.3-.06,.42-.17l2.34-2.34c2.02-2.06,2.15-5.29,.39-7.47l1.9-1.9c.23-.23,.23-.61,0-.84Zm-3.13,9.37l-1.91,1.91-6.24-6.24,1.87-1.87c1.72-1.72,4.54-1.74,6.28-.04,1.7,1.7,1.7,4.5,0,6.23Z"/></svg>