<svg width="24" height="24" viewBox="0 0 24 24" fill="none" xmlns="http://www.w3.org/2000/svg">
<path d="M18.768 9.76367C18.7569 9.23268 18.6563 8.70738 18.4703 8.20988C18.3052 7.78479 18.0532 7.39877 17.7306 7.07643C17.408 6.75408 17.0217 6.50248 16.5965 6.33764C16.0996 6.1517 15.5748 6.05107 15.0443 6.04001C14.3594 6.008 14.1418 6 12.4008 6C10.6598 6 10.4438 6 9.76207 6.0368C9.23106 6.04772 8.70572 6.14835 8.20827 6.33444C7.78378 6.50001 7.39838 6.75211 7.07661 7.07471C6.75483 7.39732 6.50372 7.78336 6.33924 8.20828C6.1527 8.70505 6.05205 9.22993 6.0416 9.76047C6.008 10.447 6 10.6646 6 12.4008C6 14.137 6 14.3562 6.0368 15.0395C6.04768 15.57 6.14832 16.0948 6.33444 16.5917C6.49928 17.0172 6.75107 17.4036 7.07372 17.7263C7.39637 18.0489 7.78279 18.3007 8.20827 18.4656C8.70521 18.6515 9.23 18.7521 9.76047 18.7632C10.4438 18.792 10.6614 18.8 12.3992 18.8C14.137 18.8 14.3546 18.8 15.0379 18.7632C15.5684 18.7523 16.0932 18.6517 16.5901 18.4656C17.0159 18.3014 17.4027 18.0501 17.7257 17.7277C18.0487 17.4052 18.3007 17.0189 18.4655 16.5933C18.6513 16.0963 18.752 15.5716 18.7632 15.0411C18.7936 14.3578 18.8 14.1402 18.8 12.4024C18.8 10.6646 18.8016 10.447 18.768 9.76367ZM17.6142 14.9899C17.6106 15.396 17.5364 15.7983 17.395 16.1789C17.2883 16.455 17.125 16.7057 16.9155 16.9149C16.7061 17.1241 16.4551 17.2871 16.1789 17.3934C15.7989 17.5355 15.3971 17.6102 14.9915 17.6143C14.3162 17.6431 14.1146 17.6511 12.4056 17.6511C10.6966 17.6511 10.4854 17.6511 9.81967 17.6143C9.41403 17.6106 9.01216 17.5359 8.63233 17.3934C8.35394 17.2909 8.10232 17.1268 7.89624 16.9134C7.68371 16.7066 7.51975 16.4551 7.41618 16.1773C7.27491 15.7971 7.20021 15.3955 7.19535 14.9899C7.16654 14.3146 7.15854 14.1114 7.15854 12.404C7.15854 10.6966 7.16654 10.4838 7.19535 9.81808C7.19982 9.41251 7.27453 9.01078 7.41618 8.63073C7.51797 8.35197 7.68218 8.10018 7.89624 7.89464C8.10228 7.68194 8.35321 7.51793 8.63073 7.41458C9.01128 7.27272 9.41357 7.198 9.81967 7.19375C10.495 7.16335 10.6966 7.15694 12.4056 7.15694C14.1146 7.15694 14.3258 7.15694 14.9915 7.19375C15.3971 7.19777 15.7989 7.2725 16.1789 7.41458C16.4568 7.51714 16.7079 7.68126 16.9134 7.89464C17.1263 8.10107 17.2904 8.35259 17.3934 8.63073C17.5347 9.01082 17.6089 9.41258 17.6126 9.81808C17.643 10.4934 17.651 10.695 17.651 12.404C17.651 14.113 17.6446 14.321 17.6142 14.9899V14.9899ZM12.4008 9.11399C11.7505 9.11462 11.1149 9.30806 10.5746 9.66985C10.0342 10.0316 9.61319 10.5455 9.36483 11.1466C9.11648 11.7476 9.05191 12.4088 9.17928 13.0465C9.30666 13.6842 9.62026 14.2698 10.0804 14.7294C10.5406 15.1889 11.1267 15.5016 11.7646 15.6281C12.4025 15.7545 13.0636 15.689 13.6643 15.4397C14.2649 15.1905 14.7782 14.7688 15.1392 14.2278C15.5002 13.6869 15.6927 13.0511 15.6924 12.4008C15.6916 11.5285 15.3443 10.6923 14.7271 10.0759C14.1098 9.45956 13.2731 9.11356 12.4008 9.11399V9.11399ZM12.4008 14.5355C11.9791 14.5348 11.5671 14.4092 11.2168 14.1745C10.8664 13.9398 10.5935 13.6066 10.4325 13.2168C10.2715 12.8271 10.2297 12.3984 10.3122 11.9849C10.3947 11.5714 10.598 11.1916 10.8963 10.8935C11.1945 10.5955 11.5745 10.3925 11.9881 10.3103C12.4016 10.2281 12.8303 10.2703 13.2199 10.4316C13.6095 10.5928 13.9426 10.866 14.177 11.2165C14.4115 11.567 14.5367 11.9791 14.5371 12.4008C14.5371 12.6813 14.4818 12.959 14.3744 13.2181C14.267 13.4772 14.1097 13.7126 13.9113 13.9108C13.7129 14.109 13.4774 14.2663 13.2182 14.3734C12.959 14.4806 12.6813 14.5357 12.4008 14.5355ZM16.5869 8.98277C16.5872 9.13476 16.5425 9.28342 16.4582 9.40994C16.374 9.53646 16.2542 9.63516 16.1139 9.69354C15.9735 9.75192 15.8191 9.76736 15.67 9.73791C15.5209 9.70845 15.3838 9.63542 15.2763 9.52807C15.1687 9.42071 15.0954 9.28385 15.0656 9.13481C15.0358 8.98577 15.051 8.83125 15.109 8.69081C15.1671 8.55036 15.2656 8.43031 15.3919 8.34584C15.5183 8.26137 15.6668 8.21628 15.8188 8.21628C15.9198 8.21586 16.0199 8.23536 16.1134 8.27367C16.2068 8.31198 16.2918 8.36835 16.3634 8.43955C16.4351 8.51074 16.492 8.59537 16.5309 8.68859C16.5698 8.7818 16.5899 8.88177 16.5901 8.98277H16.5869Z" fill="white"/>
</svg>
