<svg width="24" height="24" viewBox="0 0 24 24" fill="none" xmlns="http://www.w3.org/2000/svg">
<path d="M18.9975 19H19V14.2316C19 11.8982 18.4973 10.1031 15.7703 10.1031C14.4602 10.1031 13.5791 10.8217 13.2211 11.5047H13.183V10.3215H10.5982V19H13.2896V14.7014C13.2896 13.5689 13.5029 12.4746 14.9045 12.4746C16.2857 12.4746 16.3061 13.767 16.3061 14.7725V19H18.9975ZM6.21328 10.3215H8.90977V19H6.21328V10.3215ZM7.56152 6C6.69824 6 6 6.69824 6 7.56152C6 8.4248 6.69824 9.13828 7.56152 9.13828C8.4248 9.13828 9.12305 8.42227 9.12305 7.56152C9.12051 6.69824 8.42227 6 7.56152 6Z" fill="white"/>
</svg>
