<svg width="24" height="24" viewBox="0 0 24 24" fill="none" xmlns="http://www.w3.org/2000/svg">
<path d="M18 10.3311C16.8204 10.3338 15.6697 9.98507 14.7106 9.33426V13.8732C14.7102 14.7139 14.4392 15.5344 13.9336 16.2251C13.428 16.9158 12.712 17.4437 11.8813 17.7383C11.0507 18.0328 10.1449 18.08 9.28522 17.8735C8.42552 17.6669 7.65283 17.2165 7.07047 16.5825C6.48812 15.9484 6.12385 15.161 6.02638 14.3254C5.92892 13.4898 6.10289 12.646 6.52505 11.9066C6.94721 11.1673 7.59743 10.5678 8.38876 10.1882C9.1801 9.80862 10.0748 9.66709 10.9533 9.78252V12.0655C10.5513 11.9456 10.1196 11.9492 9.71994 12.0758C9.32024 12.2023 8.97294 12.4454 8.72766 12.7702C8.48237 13.095 8.35163 13.485 8.35411 13.8844C8.3566 14.2839 8.49217 14.6724 8.74148 14.9944C8.99078 15.3165 9.34107 15.5556 9.74232 15.6777C10.1436 15.7998 10.5753 15.7986 10.9757 15.6742C11.3762 15.5499 11.725 15.3088 11.9723 14.9854C12.2196 14.6619 12.3527 14.2727 12.3527 13.8732V5H14.7106C14.7089 5.18874 14.7256 5.37721 14.7604 5.56305C14.8423 5.97791 15.0127 6.37256 15.261 6.72287C15.5094 7.07318 15.8306 7.37178 16.2048 7.6004C16.7373 7.93415 17.3616 8.11203 18 8.1119V10.3311Z" fill="white"/>
</svg>
